<svg width="20" height="20" viewBox="0 0 20 20" fill="none" xmlns="http://www.w3.org/2000/svg">
    <path d="M17.6562 1.5625H16.7188V0H15.1562V1.5625H4.84375V0H3.28125V1.5625H2.34375C1.05141 1.5625 0 2.61391 0 3.90625V17.6562C0 18.9486 1.05141 20 2.34375 20H17.6562C18.9486 20 20 18.9486 20 17.6562V3.90625C20 2.61391 18.9486 1.5625 17.6562 1.5625ZM18.4375 17.6562C18.4375 18.087 18.087 18.4375 17.6562 18.4375H2.34375C1.91297 18.4375 1.5625 18.087 1.5625 17.6562V7.34375H18.4375V17.6562ZM18.4375 5.78125H1.5625V3.90625C1.5625 3.47547 1.91297 3.125 2.34375 3.125H3.28125V4.6875H4.84375V3.125H15.1562V4.6875H16.7188V3.125H17.6562C18.087 3.125 18.4375 3.47547 18.4375 3.90625V5.78125Z" fill="#790C5A"/>
    <path d="M2.96875 9.76562C2.96875 10.1971 3.31853 10.5469 3.75 10.5469C4.18147 10.5469 4.53125 10.1971 4.53125 9.76562C4.53125 9.33415 4.18147 8.98438 3.75 8.98438C3.31853 8.98438 2.96875 9.33415 2.96875 9.76562Z" fill="#790C5A"/>
    <path d="M6.09375 9.76562C6.09375 10.1971 6.44353 10.5469 6.875 10.5469C7.30647 10.5469 7.65625 10.1971 7.65625 9.76562C7.65625 9.33415 7.30647 8.98438 6.875 8.98438C6.44353 8.98438 6.09375 9.33415 6.09375 9.76562Z" fill="#790C5A"/>
    <path d="M9.21875 9.76562C9.21875 10.1971 9.56853 10.5469 10 10.5469C10.4315 10.5469 10.7812 10.1971 10.7812 9.76562C10.7812 9.33415 10.4315 8.98438 10 8.98438C9.56853 8.98438 9.21875 9.33415 9.21875 9.76562Z" fill="#790C5A"/>
    <path d="M12.3438 9.76562C12.3438 10.1971 12.6935 10.5469 13.125 10.5469C13.5565 10.5469 13.9062 10.1971 13.9062 9.76562C13.9062 9.33415 13.5565 8.98438 13.125 8.98438C12.6935 8.98438 12.3438 9.33415 12.3438 9.76562Z" fill="#790C5A"/>
    <path d="M15.4688 9.76562C15.4688 10.1971 15.8185 10.5469 16.25 10.5469C16.6815 10.5469 17.0312 10.1971 17.0312 9.76562C17.0312 9.33415 16.6815 8.98438 16.25 8.98438C15.8185 8.98438 15.4688 9.33415 15.4688 9.76562Z" fill="#790C5A"/>
    <path d="M2.96875 12.8906C2.96875 13.3221 3.31853 13.6719 3.75 13.6719C4.18147 13.6719 4.53125 13.3221 4.53125 12.8906C4.53125 12.4592 4.18147 12.1094 3.75 12.1094C3.31853 12.1094 2.96875 12.4592 2.96875 12.8906Z" fill="#790C5A"/>
    <path d="M6.09375 12.8906C6.09375 13.3221 6.44353 13.6719 6.875 13.6719C7.30647 13.6719 7.65625 13.3221 7.65625 12.8906C7.65625 12.4592 7.30647 12.1094 6.875 12.1094C6.44353 12.1094 6.09375 12.4592 6.09375 12.8906Z" fill="#790C5A"/>
    <path d="M9.21875 12.8906C9.21875 13.3221 9.56853 13.6719 10 13.6719C10.4315 13.6719 10.7812 13.3221 10.7812 12.8906C10.7812 12.4592 10.4315 12.1094 10 12.1094C9.56853 12.1094 9.21875 12.4592 9.21875 12.8906Z" fill="#790C5A"/>
    <path d="M12.3438 12.8906C12.3438 13.3221 12.6935 13.6719 13.125 13.6719C13.5565 13.6719 13.9062 13.3221 13.9062 12.8906C13.9062 12.4592 13.5565 12.1094 13.125 12.1094C12.6935 12.1094 12.3438 12.4592 12.3438 12.8906Z" fill="#790C5A"/>
    <path d="M2.96875 16.0156C2.96875 16.4471 3.31853 16.7969 3.75 16.7969C4.18147 16.7969 4.53125 16.4471 4.53125 16.0156C4.53125 15.5842 4.18147 15.2344 3.75 15.2344C3.31853 15.2344 2.96875 15.5842 2.96875 16.0156Z" fill="#790C5A"/>
    <path d="M6.09375 16.0156C6.09375 16.4471 6.44353 16.7969 6.875 16.7969C7.30647 16.7969 7.65625 16.4471 7.65625 16.0156C7.65625 15.5842 7.30647 15.2344 6.875 15.2344C6.44353 15.2344 6.09375 15.5842 6.09375 16.0156Z" fill="#790C5A"/>
    <path d="M9.21875 16.0156C9.21875 16.4471 9.56853 16.7969 10 16.7969C10.4315 16.7969 10.7812 16.4471 10.7812 16.0156C10.7812 15.5842 10.4315 15.2344 10 15.2344C9.56853 15.2344 9.21875 15.5842 9.21875 16.0156Z" fill="#790C5A"/>
    <path d="M12.3438 16.0156C12.3438 16.4471 12.6935 16.7969 13.125 16.7969C13.5565 16.7969 13.9062 16.4471 13.9062 16.0156C13.9062 15.5842 13.5565 15.2344 13.125 15.2344C12.6935 15.2344 12.3438 15.5842 12.3438 16.0156Z" fill="#790C5A"/>
    <path d="M15.4688 12.8906C15.4688 13.3221 15.8185 13.6719 16.25 13.6719C16.6815 13.6719 17.0312 13.3221 17.0312 12.8906C17.0312 12.4592 16.6815 12.1094 16.25 12.1094C15.8185 12.1094 15.4688 12.4592 15.4688 12.8906Z" fill="#790C5A"/>
</svg>
