<svg width="24" height="24" viewBox="0 0 24 24" fill="none" xmlns="http://www.w3.org/2000/svg">
    <g clip-path="url(#clip0)">
        <path d="M21.2775 15.5812C18.2887 14.4019 16.0275 12.7837 14.88 11.025C13.9219 9.5381 12.8175 9.24373 12.2662 9.19873V8.06248C12.2631 7.97831 12.2884 7.89554 12.3381 7.82752C12.3878 7.75949 12.4589 7.71016 12.54 7.68748C12.8597 7.6024 13.1493 7.4295 13.3758 7.18835C13.6023 6.9472 13.7568 6.64744 13.8218 6.32302C13.8867 5.99859 13.8595 5.66246 13.7433 5.35269C13.6271 5.04292 13.4264 4.77188 13.1641 4.57027C12.9017 4.36866 12.5882 4.24452 12.2589 4.21193C11.9297 4.17933 11.5979 4.23958 11.3011 4.38584C11.0043 4.5321 10.7544 4.75853 10.5797 5.0395C10.405 5.32046 10.3124 5.64474 10.3125 5.9756C10.3125 6.02533 10.3322 6.07302 10.3674 6.10818C10.4026 6.14335 10.4503 6.1631 10.5 6.1631C10.5497 6.1631 10.5974 6.14335 10.6326 6.10818C10.6677 6.07302 10.6875 6.02533 10.6875 5.9756C10.6876 5.71493 10.7607 5.4595 10.8985 5.2382C11.0362 5.01691 11.2332 4.83857 11.467 4.72336C11.7008 4.60816 11.9622 4.56068 12.2217 4.5863C12.4811 4.61192 12.7281 4.70962 12.9349 4.86834C13.1417 5.02706 13.2999 5.24048 13.3917 5.48445C13.4835 5.72842 13.5053 5.99321 13.4544 6.24887C13.4036 6.50454 13.2822 6.74088 13.104 6.93116C12.9259 7.12144 12.698 7.25807 12.4462 7.3256C12.2849 7.36903 12.1426 7.46512 12.0421 7.59862C11.9415 7.73212 11.8884 7.89537 11.8912 8.06248V9.18748C11.3944 9.18748 10.17 9.39185 9.11999 11.0212C7.98374 12.78 5.71124 14.3962 2.72249 15.5775C2.50312 15.6394 0.217491 16.2994 -9.49576e-06 19.1625C-0.00540525 19.2426 0.00561344 19.3231 0.0323724 19.3988C0.0591313 19.4746 0.101068 19.5441 0.155616 19.6031C0.211682 19.6626 0.2794 19.71 0.354557 19.7423C0.429715 19.7745 0.510704 19.791 0.59249 19.7906H23.4056C23.4874 19.791 23.5684 19.7745 23.6435 19.7423C23.7187 19.71 23.7864 19.6626 23.8425 19.6031C23.897 19.5441 23.939 19.4746 23.9657 19.3988C23.9925 19.3231 24.0035 19.2426 23.9981 19.1625C23.7825 16.2994 21.4969 15.6394 21.2775 15.5812ZM2.57249 18.4987C5.97073 16.6753 9.13618 14.4479 12 11.865C14.6775 14.4206 17.5181 16.125 21.0975 18.2606L21.495 18.4987H2.57249Z" fill="white"/>
        <path d="M12.2039 7.85917H12.2037V8.98417V9.23417H11.9537H11.5787H11.3287V8.98417V7.86112C11.3255 7.63911 11.3963 7.4223 11.5299 7.2449C11.6639 7.06691 11.8536 6.93879 12.0688 6.88088L12.069 6.88083C12.2757 6.82538 12.4628 6.71321 12.6091 6.55698C12.7553 6.40075 12.855 6.20671 12.8967 5.9968C12.9385 5.7869 12.9206 5.56949 12.8453 5.36919C12.7699 5.16888 12.64 4.99366 12.4702 4.86335C12.3004 4.73303 12.0976 4.65282 11.8846 4.63178C11.6716 4.61075 11.457 4.64973 11.265 4.74432C11.073 4.8389 10.9113 4.98532 10.7982 5.16701C10.6852 5.34866 10.6252 5.55833 10.625 5.77229L12.2039 7.85917ZM12.2039 7.85917L12.2036 7.84993M12.2039 7.85917L12.2036 7.84993M12.2036 7.84993C12.2025 7.82188 12.211 7.79429 12.2275 7.77161M12.2036 7.84993L12.2275 7.77161M12.2275 7.77161C12.2439 7.74923 12.2672 7.73293 12.2938 7.72524C12.6578 7.62797 12.9875 7.43088 13.2455 7.15621C13.504 6.88104 13.6803 6.53899 13.7544 6.16879C13.8285 5.79859 13.7975 5.41503 13.6649 5.06156C13.5322 4.70808 13.3033 4.3988 13.0039 4.16874C12.7046 3.93868 12.3468 3.79703 11.9711 3.75984C11.5954 3.72264 11.2167 3.79138 10.8781 3.95828C10.5394 4.12518 10.2543 4.38356 10.0549 4.70417C9.85554 5.02476 9.74992 5.39477 9.75 5.77229L12.2275 7.77161ZM10.4969 6.08165C10.5789 5.99964 10.625 5.88842 10.625 5.77244L9.75 5.77235C9.75002 5.88836 9.79611 5.99962 9.87814 6.08165C9.96019 6.1637 10.0715 6.20979 10.1875 6.20979C10.3035 6.20979 10.4148 6.1637 10.4969 6.08165Z" fill="white" stroke="white" stroke-width="0.5"/>
    </g>
    <defs>
        <clipPath id="clip0">
            <rect width="24" height="24" fill="white"/>
        </clipPath>
    </defs>
</svg>
