<svg width="24" height="24" viewBox="0 0 24 24" fill="none" xmlns="http://www.w3.org/2000/svg">
    <g clip-path="url(#clip0)">
        <path d="M23.3469 17.6136L19.9976 14.2643C18.8014 13.0681 16.7679 13.5467 16.2895 15.1016C15.9306 16.1782 14.7344 16.7763 13.6579 16.537C11.2656 15.9389 8.0359 12.8289 7.43781 10.317C7.07896 9.24036 7.79666 8.04419 8.87322 7.68538C10.4282 7.20691 10.9067 5.17343 9.71053 3.97726L6.36126 0.627989C5.40433 -0.209329 3.96892 -0.209329 3.13161 0.627989L0.858887 2.90071C-1.41383 5.29305 1.09812 11.6327 6.72011 17.2547C12.3421 22.8767 18.6818 25.5083 21.0741 23.116L23.3469 20.8432C24.1842 19.8863 24.1842 18.4509 23.3469 17.6136Z" fill="white"/>
    </g>
    <defs>
        <clipPath id="clip0">
            <rect width="24" height="24" fill="white"/>
        </clipPath>
    </defs>
</svg>
