<svg width="28" height="30" viewBox="0 0 28 30" fill="none" xmlns="http://www.w3.org/2000/svg">
    <path d="M27.2254 7.57048L27.2172 7.53748C26.5492 4.83699 23.5377 1.93933 20.7721 1.3365L20.7409 1.33005C16.2677 0.476733 11.732 0.476733 7.25977 1.33005L7.22764 1.3365C4.46299 1.93933 1.45137 4.83718 0.78252 7.53748L0.775098 7.57048C-0.0506836 11.3417 -0.0506836 15.1663 0.775098 18.9375L0.78252 18.9705C1.42295 21.5556 4.21016 24.3203 6.87256 25.0805V28.095C6.87256 29.1861 8.20215 29.7219 8.9582 28.9345L12.0124 25.7598C12.6749 25.7969 13.3377 25.8176 14.0003 25.8176C16.252 25.8176 18.5047 25.6046 20.7408 25.178L20.772 25.1716C23.5376 24.5687 26.5491 21.6709 27.2171 18.9706L27.2253 18.9376C28.0511 15.1663 28.0511 11.3419 27.2254 7.57048ZM24.8083 18.3907C24.3623 20.1525 22.0758 22.3428 20.259 22.7474C17.8806 23.1998 15.4832 23.393 13.0883 23.3267C13.0406 23.3254 12.9948 23.3439 12.9617 23.3781C12.6218 23.7269 10.7317 25.6674 10.7317 25.6674L8.35986 28.1017C8.18643 28.2826 7.88174 28.1595 7.88174 27.9099V22.9162C7.88174 22.8337 7.82285 22.7636 7.7418 22.7476C7.74131 22.7474 7.74092 22.7474 7.74043 22.7473C5.92363 22.3427 3.63789 20.1524 3.19111 18.3906C2.44785 14.9818 2.44785 11.5261 3.19111 8.11736C3.63789 6.35554 5.92363 4.16531 7.74043 3.76062C11.8943 2.97058 16.1061 2.97058 20.2591 3.76062C22.0768 4.16531 24.3624 6.35554 24.8084 8.11736C25.5524 11.5262 25.5524 14.9819 24.8083 18.3907Z" fill="white"/>
    <path d="M17.9523 20.6958C17.673 20.611 17.4069 20.554 17.1595 20.4516C14.5979 19.3888 12.2405 18.0177 10.3732 15.916C9.31125 14.7209 8.4801 13.3716 7.77756 11.9437C7.44436 11.2665 7.1636 10.5629 6.87737 9.86371C6.61643 9.22621 7.0008 8.56761 7.40549 8.08714C7.78528 7.63627 8.27405 7.29134 8.80334 7.03695C9.21643 6.83851 9.62385 6.95296 9.92561 7.30306C10.5778 8.06009 11.177 8.8558 11.6619 9.73334C11.9603 10.2731 11.8784 10.9328 11.3377 11.3001C11.2063 11.3894 11.0865 11.4943 10.9642 11.5951C10.8568 11.6834 10.7558 11.7727 10.6822 11.8923C10.5477 12.1112 10.5412 12.3695 10.6278 12.6075C11.2945 14.4396 12.4182 15.8644 14.2624 16.6319C14.5575 16.7546 14.8538 16.8975 15.1939 16.8579C15.7632 16.7914 15.9476 16.1668 16.3466 15.8406C16.7365 15.5217 17.235 15.5175 17.655 15.7833C18.0752 16.0494 18.4824 16.3347 18.8873 16.6233C19.2848 16.9065 19.6804 17.1833 20.0469 17.5063C20.3994 17.8167 20.5208 18.224 20.3223 18.6452C19.959 19.4167 19.4302 20.0584 18.6676 20.4682C18.4523 20.5836 18.195 20.621 17.9523 20.6958C17.673 20.611 18.195 20.621 17.9523 20.6958Z" fill="white"/>
    <path d="M14.0071 6.15428C17.3576 6.24822 20.1097 8.47176 20.6994 11.7843C20.7999 12.3487 20.8357 12.9257 20.8804 13.4986C20.8992 13.7395 20.7627 13.9684 20.5028 13.9717C20.2342 13.9749 20.1134 13.7501 20.0958 13.5094C20.0613 13.0326 20.0374 12.5536 19.9717 12.0809C19.6249 9.58495 17.6347 7.52 15.1503 7.07694C14.7764 7.01024 14.394 6.99276 14.0151 6.95301C13.7758 6.92791 13.4623 6.91346 13.4093 6.6158C13.3649 6.36629 13.5754 6.16766 13.813 6.15487C13.8774 6.15106 13.9423 6.15408 14.0071 6.15428C17.3578 6.24822 13.9423 6.15408 14.0071 6.15428Z" fill="white"/>
    <path d="M19.0988 12.7556C19.0932 12.7975 19.0904 12.8958 19.0658 12.9884C18.9769 13.3248 18.4668 13.3668 18.3495 13.0275C18.3146 12.9268 18.3094 12.8122 18.3092 12.7038C18.3081 11.9942 18.1539 11.2852 17.796 10.6677C17.4281 10.0331 16.866 9.49976 16.2069 9.17681C15.8083 8.98169 15.3773 8.8603 14.9404 8.78813C14.7495 8.75649 14.5565 8.73745 14.3646 8.71069C14.1321 8.67837 14.0079 8.53022 14.019 8.30112C14.0293 8.08647 14.1862 7.93189 14.4202 7.94526C15.189 7.98882 15.9318 8.15523 16.6155 8.51714C18.0055 9.25337 18.7997 10.4153 19.0315 11.9669C19.042 12.0374 19.0587 12.1069 19.0641 12.1774C19.0772 12.3514 19.0855 12.5257 19.0988 12.7556C19.0932 12.7973 19.0855 12.5257 19.0988 12.7556Z" fill="white"/>
    <path d="M17.0149 12.6748C16.7346 12.6799 16.5846 12.5246 16.5556 12.2678C16.5356 12.0887 16.5196 11.9071 16.4768 11.7326C16.3927 11.3892 16.2101 11.071 15.9213 10.8606C15.7849 10.7613 15.6303 10.6889 15.4685 10.642C15.263 10.5825 15.0493 10.599 14.8443 10.5488C14.6216 10.4942 14.4983 10.3137 14.5334 10.1048C14.5652 9.91458 14.7502 9.76614 14.9581 9.78128C16.2571 9.87503 17.1855 10.5466 17.318 12.0759C17.3275 12.1838 17.3385 12.2978 17.3145 12.4012C17.2733 12.5777 17.1425 12.6662 17.0149 12.6748C16.7345 12.6798 17.1425 12.6662 17.0149 12.6748Z" fill="white"/>
</svg>
